<mxfile host="app.diagrams.net" agent="Mozilla/5.0 (Windows NT 10.0; Win64; x64) AppleWebKit/537.36 (KHTML, like Gecko) Chrome/127.0.0.0 Safari/537.36 Edg/127.0.0.0" version="24.7.11">
  <diagram name="Página-1" id="l07lsUCDXwU9avwzp2Yp">
    <mxGraphModel dx="2040" dy="838" grid="1" gridSize="10" guides="1" tooltips="1" connect="1" arrows="1" fold="1" page="1" pageScale="1" pageWidth="827" pageHeight="1169" math="0" shadow="0">
      <root>
        <mxCell id="0" />
        <mxCell id="1" parent="0" />
        <mxCell id="4BEdyxVlEIAUejrMvb1Y-15" style="edgeStyle=orthogonalEdgeStyle;rounded=0;orthogonalLoop=1;jettySize=auto;html=1;entryX=0;entryY=0.5;entryDx=0;entryDy=0;" parent="1" source="4BEdyxVlEIAUejrMvb1Y-1" target="4BEdyxVlEIAUejrMvb1Y-2" edge="1">
          <mxGeometry relative="1" as="geometry" />
        </mxCell>
        <mxCell id="4BEdyxVlEIAUejrMvb1Y-38" style="edgeStyle=orthogonalEdgeStyle;rounded=0;orthogonalLoop=1;jettySize=auto;html=1;entryX=0;entryY=0.5;entryDx=0;entryDy=0;" parent="1" source="4BEdyxVlEIAUejrMvb1Y-1" target="4BEdyxVlEIAUejrMvb1Y-11" edge="1">
          <mxGeometry relative="1" as="geometry" />
        </mxCell>
        <mxCell id="4BEdyxVlEIAUejrMvb1Y-40" style="edgeStyle=orthogonalEdgeStyle;rounded=0;orthogonalLoop=1;jettySize=auto;html=1;entryX=0;entryY=0.5;entryDx=0;entryDy=0;" parent="1" source="4BEdyxVlEIAUejrMvb1Y-1" target="4BEdyxVlEIAUejrMvb1Y-8" edge="1">
          <mxGeometry relative="1" as="geometry" />
        </mxCell>
        <mxCell id="4BEdyxVlEIAUejrMvb1Y-41" style="edgeStyle=orthogonalEdgeStyle;rounded=0;orthogonalLoop=1;jettySize=auto;html=1;entryX=0;entryY=0.5;entryDx=0;entryDy=0;" parent="1" source="4BEdyxVlEIAUejrMvb1Y-1" target="4BEdyxVlEIAUejrMvb1Y-7" edge="1">
          <mxGeometry relative="1" as="geometry" />
        </mxCell>
        <mxCell id="4BEdyxVlEIAUejrMvb1Y-42" style="edgeStyle=orthogonalEdgeStyle;rounded=0;orthogonalLoop=1;jettySize=auto;html=1;entryX=0;entryY=0.5;entryDx=0;entryDy=0;" parent="1" source="4BEdyxVlEIAUejrMvb1Y-1" target="4BEdyxVlEIAUejrMvb1Y-9" edge="1">
          <mxGeometry relative="1" as="geometry" />
        </mxCell>
        <mxCell id="4BEdyxVlEIAUejrMvb1Y-43" style="edgeStyle=orthogonalEdgeStyle;rounded=0;orthogonalLoop=1;jettySize=auto;html=1;entryX=0;entryY=0.5;entryDx=0;entryDy=0;" parent="1" source="4BEdyxVlEIAUejrMvb1Y-1" target="4BEdyxVlEIAUejrMvb1Y-10" edge="1">
          <mxGeometry relative="1" as="geometry" />
        </mxCell>
        <mxCell id="4BEdyxVlEIAUejrMvb1Y-1" value="Jogador" style="shape=umlActor;verticalLabelPosition=bottom;verticalAlign=top;html=1;" parent="1" vertex="1">
          <mxGeometry x="-170" y="450" width="130" height="220" as="geometry" />
        </mxCell>
        <mxCell id="4BEdyxVlEIAUejrMvb1Y-33" style="edgeStyle=orthogonalEdgeStyle;rounded=0;orthogonalLoop=1;jettySize=auto;html=1;dashed=1;" parent="1" source="4BEdyxVlEIAUejrMvb1Y-2" target="4BEdyxVlEIAUejrMvb1Y-5" edge="1">
          <mxGeometry relative="1" as="geometry" />
        </mxCell>
        <mxCell id="4BEdyxVlEIAUejrMvb1Y-2" value="&lt;div&gt;&lt;br&gt;&lt;/div&gt;&lt;div&gt;&lt;br&gt;&lt;/div&gt;&lt;div&gt;Explorar Dungeon&lt;br&gt;&lt;/div&gt;" style="ellipse;whiteSpace=wrap;html=1;verticalAlign=top;" parent="1" vertex="1">
          <mxGeometry x="60" y="520" width="125" height="80" as="geometry" />
        </mxCell>
        <mxCell id="4BEdyxVlEIAUejrMvb1Y-24" style="edgeStyle=orthogonalEdgeStyle;rounded=0;orthogonalLoop=1;jettySize=auto;html=1;dashed=1;" parent="1" source="4BEdyxVlEIAUejrMvb1Y-5" target="4BEdyxVlEIAUejrMvb1Y-13" edge="1">
          <mxGeometry relative="1" as="geometry" />
        </mxCell>
        <mxCell id="4BEdyxVlEIAUejrMvb1Y-28" value="&amp;lt;&amp;lt;extend&amp;gt;&amp;gt;" style="edgeLabel;html=1;align=center;verticalAlign=middle;resizable=0;points=[];" parent="4BEdyxVlEIAUejrMvb1Y-24" vertex="1" connectable="0">
          <mxGeometry x="-0.092" y="1" relative="1" as="geometry">
            <mxPoint x="-63" y="61" as="offset" />
          </mxGeometry>
        </mxCell>
        <mxCell id="4BEdyxVlEIAUejrMvb1Y-35" style="edgeStyle=orthogonalEdgeStyle;rounded=0;orthogonalLoop=1;jettySize=auto;html=1;dashed=1;" parent="1" source="4BEdyxVlEIAUejrMvb1Y-5" target="4BEdyxVlEIAUejrMvb1Y-12" edge="1">
          <mxGeometry relative="1" as="geometry" />
        </mxCell>
        <mxCell id="eJFXpT_avDy1TGte6oWv-4" style="edgeStyle=orthogonalEdgeStyle;rounded=0;orthogonalLoop=1;jettySize=auto;html=1;dashed=1;" edge="1" parent="1" source="4BEdyxVlEIAUejrMvb1Y-5" target="eJFXpT_avDy1TGte6oWv-3">
          <mxGeometry relative="1" as="geometry" />
        </mxCell>
        <mxCell id="4BEdyxVlEIAUejrMvb1Y-5" value="&lt;div style=&quot;&quot;&gt;&lt;br&gt;&lt;/div&gt;&lt;div style=&quot;&quot;&gt;&lt;br&gt;&lt;/div&gt;&lt;div style=&quot;&quot;&gt;Combater Inimigo&lt;br&gt;&lt;/div&gt;" style="ellipse;whiteSpace=wrap;html=1;verticalAlign=top;" parent="1" vertex="1">
          <mxGeometry x="289" y="520" width="125" height="80" as="geometry" />
        </mxCell>
        <mxCell id="4BEdyxVlEIAUejrMvb1Y-7" value="&lt;div&gt;&lt;br&gt;&lt;/div&gt;&lt;div&gt;&lt;br&gt;&lt;/div&gt;&lt;div&gt;Coletar Itens&lt;br&gt;&lt;/div&gt;" style="ellipse;whiteSpace=wrap;html=1;verticalAlign=top;" parent="1" vertex="1">
          <mxGeometry x="60" y="720" width="125" height="80" as="geometry" />
        </mxCell>
        <mxCell id="4BEdyxVlEIAUejrMvb1Y-8" value="&lt;div&gt;&lt;br&gt;&lt;/div&gt;&lt;div&gt;&lt;br&gt;&lt;/div&gt;&lt;div&gt;Usar Itens&lt;br&gt;&lt;/div&gt;" style="ellipse;whiteSpace=wrap;html=1;verticalAlign=top;" parent="1" vertex="1">
          <mxGeometry x="60" y="620" width="125" height="80" as="geometry" />
        </mxCell>
        <mxCell id="4BEdyxVlEIAUejrMvb1Y-9" value="&lt;div&gt;&lt;br&gt;&lt;/div&gt;&lt;div&gt;&lt;br&gt;&lt;/div&gt;&lt;div&gt;Gerenciar Inventário&lt;br&gt;&lt;/div&gt;" style="ellipse;whiteSpace=wrap;html=1;verticalAlign=top;" parent="1" vertex="1">
          <mxGeometry x="60" y="820" width="125" height="80" as="geometry" />
        </mxCell>
        <mxCell id="4BEdyxVlEIAUejrMvb1Y-10" value="&lt;div&gt;&lt;br&gt;&lt;/div&gt;&lt;div&gt;&lt;br&gt;&lt;/div&gt;&lt;div&gt;Carregar Jogo&lt;br&gt;&lt;/div&gt;" style="ellipse;whiteSpace=wrap;html=1;verticalAlign=top;" parent="1" vertex="1">
          <mxGeometry x="60" y="290" width="125" height="80" as="geometry" />
        </mxCell>
        <mxCell id="4BEdyxVlEIAUejrMvb1Y-11" value="&lt;div&gt;&lt;br&gt;&lt;/div&gt;&lt;div&gt;&lt;br&gt;&lt;/div&gt;&lt;div&gt;Salvar Jogo&lt;br&gt;&lt;/div&gt;" style="ellipse;whiteSpace=wrap;html=1;verticalAlign=top;" parent="1" vertex="1">
          <mxGeometry x="60" y="400" width="125" height="80" as="geometry" />
        </mxCell>
        <mxCell id="4BEdyxVlEIAUejrMvb1Y-36" style="edgeStyle=orthogonalEdgeStyle;rounded=0;orthogonalLoop=1;jettySize=auto;html=1;entryX=0.5;entryY=1;entryDx=0;entryDy=0;dashed=1;" parent="1" source="4BEdyxVlEIAUejrMvb1Y-12" target="4BEdyxVlEIAUejrMvb1Y-13" edge="1">
          <mxGeometry relative="1" as="geometry" />
        </mxCell>
        <mxCell id="4BEdyxVlEIAUejrMvb1Y-12" value="&lt;div&gt;&lt;br&gt;&lt;/div&gt;&lt;div&gt;&lt;br&gt;&lt;/div&gt;&lt;div&gt;Completar Dungeon&lt;/div&gt;" style="ellipse;whiteSpace=wrap;html=1;verticalAlign=top;" parent="1" vertex="1">
          <mxGeometry x="289" y="650" width="125" height="80" as="geometry" />
        </mxCell>
        <mxCell id="4BEdyxVlEIAUejrMvb1Y-13" value="&lt;div&gt;&lt;br&gt;&lt;/div&gt;&lt;div&gt;&lt;br&gt;&lt;/div&gt;&lt;div&gt;Subir de Nível&lt;br&gt;&lt;/div&gt;" style="ellipse;whiteSpace=wrap;html=1;verticalAlign=top;" parent="1" vertex="1">
          <mxGeometry x="500" y="520" width="125" height="80" as="geometry" />
        </mxCell>
        <mxCell id="4BEdyxVlEIAUejrMvb1Y-29" value="&amp;lt;&amp;lt;extend&amp;gt;&amp;gt;" style="edgeLabel;html=1;align=center;verticalAlign=middle;resizable=0;points=[];" parent="1" vertex="1" connectable="0">
          <mxGeometry x="470" y="585" as="geometry">
            <mxPoint x="-10" y="-41" as="offset" />
          </mxGeometry>
        </mxCell>
        <mxCell id="4BEdyxVlEIAUejrMvb1Y-31" value="Salvar e carregar jogo seriam ações de um ator chamado sistema??" style="text;html=1;align=center;verticalAlign=middle;resizable=0;points=[];autosize=1;strokeColor=none;fillColor=none;" parent="1" vertex="1">
          <mxGeometry x="130" y="370" width="390" height="30" as="geometry" />
        </mxCell>
        <mxCell id="4BEdyxVlEIAUejrMvb1Y-34" value="&amp;lt;&amp;lt;extend&amp;gt;&amp;gt;" style="edgeLabel;html=1;align=center;verticalAlign=middle;resizable=0;points=[];" parent="1" vertex="1" connectable="0">
          <mxGeometry x="220" y="540" as="geometry">
            <mxPoint x="9" y="4" as="offset" />
          </mxGeometry>
        </mxCell>
        <mxCell id="4BEdyxVlEIAUejrMvb1Y-37" value="&amp;lt;&amp;lt;extend&amp;gt;&amp;gt;" style="edgeLabel;html=1;align=center;verticalAlign=middle;resizable=0;points=[];" parent="1" vertex="1" connectable="0">
          <mxGeometry x="480" y="660" as="geometry">
            <mxPoint x="9" y="11" as="offset" />
          </mxGeometry>
        </mxCell>
        <mxCell id="eJFXpT_avDy1TGte6oWv-3" value="&lt;div style=&quot;&quot;&gt;&lt;br&gt;&lt;/div&gt;&lt;div style=&quot;&quot;&gt;&lt;br&gt;&lt;/div&gt;&lt;div style=&quot;&quot;&gt;Combater Inimigo&lt;br&gt;&lt;/div&gt;" style="ellipse;whiteSpace=wrap;html=1;verticalAlign=top;" vertex="1" parent="1">
          <mxGeometry x="288.5" y="410" width="125" height="80" as="geometry" />
        </mxCell>
        <mxCell id="eJFXpT_avDy1TGte6oWv-5" value="&amp;lt;&amp;lt;extend&amp;gt;&amp;gt;" style="edgeLabel;html=1;align=center;verticalAlign=middle;resizable=0;points=[];" vertex="1" connectable="0" parent="1">
          <mxGeometry x="410" y="540" as="geometry">
            <mxPoint x="-10" y="-41" as="offset" />
          </mxGeometry>
        </mxCell>
      </root>
    </mxGraphModel>
  </diagram>
</mxfile>
